# xmcd
#
# Track frame offsets:
# 150
# 12451
# 23356
# 43649
# 66414
# 82931
# 101864
# 117686
# 129678
# 142534
#
# Disc length: 2195 seconds
#
#
# Revision: 0
# Processed by: cddbd v1.5.2PL0 Copyright (c) Steve Scherf et al.
# Submitted via: Nero 7, 2, 3, 3 2000-2010
#
DISCID=8108910a
DTITLE=Ensambles de alumnos de la Escuela de Blues - Escuela de Blues
DYEAR=2000
DGENRE=Blues
TTITLE0=Escuela de Blues
TTITLE1=Escuela de Blues
TTITLE2=Escuela de Blues
TTITLE3=Escuela de Blues
TTITLE4=Escuela de Blues
TTITLE5=Escuela de Blues
TTITLE6=Escuela de Blues
TTITLE7=Escuela de Blues
TTITLE8=Escuela de Blues
TTITLE9=Escuela de Blues
EXTD=
EXTT0=2000-2010
EXTT1=2000-2010
EXTT2=2000-2010
EXTT3=2000-2010
EXTT4=2000-2010
EXTT5=2000-2010
EXTT6=2000-2010
EXTT7=2000-2010
EXTT8=2000-2010
EXTT9=2000-2010
PLAYORDER=
